<svg id="Layer_1" data-name="Layer 1" xmlns="http://www.w3.org/2000/svg" viewBox="0 0 406 406"><circle cx="259.76" cy="254.39" r="74.33" transform="translate(-156.8 205.19) rotate(-45)"/><path d="M144.5,254.39A115.26,115.26,0,1,0,259.76,139.13,115.26,115.26,0,0,0,144.5,254.39Zm203.58,0a88.33,88.33,0,1,1-88.32-88.33,88.31,88.31,0,0,1,88.32,88.33Z" transform="translate(-53 -53)"/><path d="M89,459H423a36.15,36.15,0,0,0,36-36V171H358.6c19,23,30.41,51.6,30.41,83.27,0,71.27-58,129.33-129.25,129.33s-129.26-58-129.26-129.31C130.5,222.63,142,194,160.91,171H53V423A36.15,36.15,0,0,0,89,459Z" transform="translate(-53 -53)"/><path d="M259.76,124.93A128.55,128.55,0,0,1,344.88,157H459V89a36.15,36.15,0,0,0-36-36H89A36.15,36.15,0,0,0,53,89v68H174.64A128.51,128.51,0,0,1,259.76,124.93Zm116-54.17a33.31,33.31,0,1,1-33.31,33.31h0A33.36,33.36,0,0,1,375.72,70.76Z" transform="translate(-53 -53)"/><path d="M375.72,123.38a19.31,19.31,0,1,0-19.31-19.31A19.31,19.31,0,0,0,375.72,123.38Z" transform="translate(-53 -53)"/></svg>