<svg id="Capa_1" data-name="Capa 1" xmlns="http://www.w3.org/2000/svg" viewBox="0 0 511.63 365.45"><path d="M511.34,213q-.29-15.42-2.42-39a356.79,356.79,0,0,0-6.14-42.12,66.48,66.48,0,0,0-19.85-35.12,60.93,60.93,0,0,0-35.55-16.56Q384,73.1,255.81,73.09T64.24,80.22a60.24,60.24,0,0,0-35.4,16.56A66.86,66.86,0,0,0,9.13,131.9,316.72,316.72,0,0,0,2.71,174Q.58,197.57.29,213T0,255.81q0,27.4.29,42.83t2.42,39a354.53,354.53,0,0,0,6.14,42.11,66.39,66.39,0,0,0,19.84,35.12A60.86,60.86,0,0,0,64.24,431.4q63.39,7.14,191.57,7.14t191.58-7.14a60.18,60.18,0,0,0,35.4-16.56,66.84,66.84,0,0,0,19.7-35.12,318.1,318.1,0,0,0,6.43-42.11q2.13-23.55,2.42-39t.29-42.83Q511.63,228.4,511.34,213ZM356.88,271.23,210.71,362.59a16.32,16.32,0,0,1-9.71,2.85,19.74,19.74,0,0,1-8.85-2.28q-9.42-5.13-9.42-16V164.45q0-10.84,9.42-16,9.71-5.15,18.56.57L356.88,240.4q8.56,4.84,8.57,15.41T356.88,271.23Z" transform="translate(0 -73.09)"/></svg>